<?xml version="1.0" standalone="no"?>
<!DOCTYPE svg PUBLIC "-//W3C//DTD SVG 20010904//EN"
 "http://www.w3.org/TR/2001/REC-SVG-20010904/DTD/svg10.dtd">
<svg version="1.0" xmlns="http://www.w3.org/2000/svg"
 width="964.000000pt" height="964.000000pt" viewBox="0 0 964.000000 964.000000"
 preserveAspectRatio="xMidYMid meet">
<metadata>
Created by potrace 1.14, written by Peter Selinger 2001-2017
</metadata>
<g transform="translate(0.000000,964.000000) scale(0.100000,-0.100000)"
fill="#000000" stroke="none">
<path d="M1290 7405 c-377 -388 -686 -708 -688 -713 -1 -4 303 -363 675 -797
373 -433 982 -1142 1353 -1574 l676 -786 54 3 c220 12 416 133 504 313 76 155
104 367 72 547 -28 160 -92 263 -219 353 -129 91 -239 141 -582 261 -524 184
-755 305 -926 484 -224 235 -339 589 -356 1094 -20 602 126 1108 419 1452 26
31 48 59 48 62 0 3 -78 6 -172 6 l-173 0 -685 -705z"/>
<path d="M4000 8102 c0 -5 12 -19 26 -33 14 -13 54 -58 89 -99 246 -295 372
-680 410 -1252 l6 -98 -345 0 c-233 0 -346 3 -346 10 0 45 -25 220 -40 287
-68 292 -250 484 -510 539 -105 23 -268 14 -372 -19 -189 -60 -317 -204 -380
-424 -31 -109 -31 -321 1 -438 64 -236 175 -310 851 -565 405 -153 574 -229
693 -309 307 -207 468 -511 539 -1016 17 -120 17 -531 0 -665 -64 -505 -275
-936 -576 -1176 -73 -57 -84 -70 -73 -83 95 -122 852 -990 858 -984 9 10 24
6257 15 6301 l-8 32 -419 0 c-230 0 -419 -4 -419 -8z"/>
<path d="M5650 8102 c0 -5 270 -566 601 -1248 330 -681 651 -1344 712 -1471
62 -128 115 -233 120 -233 4 0 6 665 5 1478 l-3 1477 -717 3 c-395 1 -718 -2
-718 -6z"/>
<path d="M7800 6600 c0 -905 3 -1359 10 -1355 5 3 132 149 282 323 150 174
424 493 608 707 185 215 339 396 344 403 5 8 -17 39 -66 90 -188 200 -1103
1134 -1138 1162 l-40 32 0 -1362z"/>
<path d="M5550 4773 c0 -1143 -3 -2095 -6 -2115 -4 -25 -3 -38 4 -38 17 0
1322 1523 1322 1542 0 10 -248 525 -551 1145 -303 621 -596 1221 -652 1336
-55 114 -104 207 -109 207 -4 0 -8 -935 -8 -2077z"/>
</g>
</svg>
