<?xml version="1.0" encoding="UTF-8" standalone="no"?>
<!DOCTYPE svg PUBLIC "-//W3C//DTD SVG 1.1//EN" "http://www.w3.org/Graphics/SVG/1.1/DTD/svg11.dtd">
<svg width="100%" height="100%" viewBox="0 0 201 200" version="1.1" xmlns="http://www.w3.org/2000/svg" xmlns:xlink="http://www.w3.org/1999/xlink" xml:space="preserve" xmlns:serif="http://www.serif.com/" style="fill-rule:evenodd;clip-rule:evenodd;stroke-linejoin:round;stroke-miterlimit:2;">
    <g>
        <path d="M200,30.24C200,13.55 186.45,-0 169.76,-0L30.24,-0C13.55,-0 0,13.55 0,30.24L0,169.62C0,186.31 13.55,199.86 30.24,199.86L169.76,199.86C186.45,199.86 200,186.31 200,169.62L200,30.24ZM160.335,57.922C166.282,59.033 176.352,63.077 177.462,64.742C177.938,65.535 173.022,77.033 171.436,78.777C171.198,78.936 170.405,78.618 169.533,77.905C167.154,75.922 154.15,72.83 147.965,72.83C135.832,72.83 126.951,78.143 125.445,86.231C125.128,88.134 124.969,95.905 125.128,103.517C125.524,119.376 126.238,121.121 133.374,124.689C136.943,126.513 139.48,126.83 147.647,126.83C157.083,126.83 166.757,125.006 169.612,122.786C170.722,121.834 172.942,123.499 173.022,125.323C173.022,125.878 173.973,128.178 175.004,130.398C176.035,132.539 176.986,134.839 176.986,135.473C176.986,137.059 168.343,140.706 160.493,142.372C151.295,144.275 141.542,144.275 132.661,142.213C124.335,140.31 118.705,137.297 113.392,131.905C106.89,125.165 106.097,121.913 106.097,100.345C106.017,82.425 106.176,81.077 108.396,76.398C109.665,73.623 112.044,70.055 113.63,68.469C117.753,64.345 126.634,59.588 132.502,58.24C139.004,56.733 153.119,56.574 160.335,57.922ZM76.52,58.24C83.181,59.508 91.982,62.839 94.678,64.98C95.709,65.852 95.551,66.883 93.965,69.975C92.855,72.116 91.744,73.861 91.427,73.861C91.189,73.861 89.286,72.988 87.225,71.958C80.247,68.469 72.476,66.883 62.643,66.883C52.018,66.883 45.595,68.707 39.33,73.385C33.225,78.063 32.035,82.187 32.035,99.394C32.035,116.839 32.749,120.248 37.665,125.323C43.137,131.032 48.846,133.094 60.264,133.649C70.176,134.125 74.855,133.253 84.211,129.209L88.018,127.543L88.018,106.847L62.009,106.847L62.009,97.887L98.96,97.887L98.96,133.57L92.379,136.742C64.705,150.301 30.925,143.244 23.075,122.31C21.251,117.552 21.013,114.539 21.013,100.028C21.013,79.729 22.044,75.764 29.022,68.707C34.573,63.235 40.441,59.984 47.974,58.319C55.269,56.654 67.877,56.654 76.52,58.24Z" style="fill:white;"/>
    </g>
</svg>
